{"title":"No.Boys.No.Toys.2.XXX.WEBRip.720P.x264-TBP","uid":11711442,"size":3145355325,"categoryP":"porn","categoryS":"movies","magnet":"?xt=urn:btih:b1051d2e3ce64d61a028a2705f763c182b097485&amp;dn=No.Boys.No.Toys.2.XXX.WEBRip.720P.x264-TBP&amp;tr=udp%3A%2F%2Ftracker.openbittorrent.com%3A80&amp;tr=udp%3A%2F%2Fopen.demonii.com%3A1337&amp;tr=udp%3A%2F%2Ftracker.coppersurfer.tk%3A6969&amp;tr=udp%3A%2F%2Fexodus.desync.com%3A6969","seeders":0,"leechers":1,"uploader":"sceneline","files":67,"time":1424360167,"description":" &lt;a href=&quot;https://www.scenetime&quot; rel=&quot;nofollow&quot; target=&quot;_NEW&quot;&gt;https://www.scenetime&lt;/a&gt; dot com\n\nSign up is OPEN - for time being. Come and have fun.\n\nplease seed back as long as possible.\n\nfor info read NFO file\n\n================== NFO====================\n                  THE.BEST.PORN.GIVES \n\n\nNo.Boys.No.Toys.2.XXX.WEBRip.720P.x264-TBP \n\nWEBSITE     : http://www.data18.com/movies/1102351 \nTYPE        :  x264\nSIZE        : 63 x 50MB \n\nGeneral\nComplete name                            : tbp.nbny2.mp4\nFormat                                   : MPEG-4\nFormat profile                           : Base Media\nCodec ID                                 : isom\nFile size                                : 2.90 GiB\nDuration                                 : 1h 54mn\nOverall bit rate mode                    : Variable\nOverall bit rate                         : 3 613 Kbps\nWriting application                      : Lavf56.4.101\n\nVideo\nID                                       : 1\nFormat                                   : AVC\nFormat/Info                              : Advanced Video Codec\nFormat profile                           : &lt;a class=&quot;__cf_email__&quot; href=&quot;/cdn-cgi/l/email-protection&quot; data-cfemail=&quot;1459757d7a5458273a25&quot;&gt;[email&amp;#160;protected]&lt;/a&gt;&lt;script cf-hash='f9e31' type=&quot;text/javascript&quot;&gt;\n/* &lt;![CDATA[ */!function(){try{var t=&quot;currentScript&quot;in document?document.currentScript:function(){for(var t=document.getElementsByTagName(&quot;script&quot;),e=t.length;e--;)if(t[e].getAttribute(&quot;cf-hash&quot;))return t[e]}();if(t&amp;&amp;t.previousSibling){var e,r,n,i,c=t.previousSibling,a=c.getAttribute(&quot;data-cfemail&quot;);if(a){for(e=&quot;&quot;,r=parseInt(a.substr(0,2),16),n=2;a.length-n;n+=2)i=parseInt(a.substr(n,2),16)^r,e+=String.fromCharCode(i);e=document.createTextNode(e),c.parentNode.replaceChild(e,c)}}}catch(u){}}();/* ]]&gt; */&lt;/script&gt;\nFormat settings, CABAC                   : Yes\nFormat settings, ReFrames                : 4 frames\nCodec ID                                 : avc1\nCodec ID/Info                            : Advanced Video Coding\nDuration                                 : 1h 54mn\nBit rate                                 : 3 500 Kbps\nWidth                                    : 1 280 pixels\nHeight                                   : 720 pixels\nDisplay aspect ratio                     : 16:9\nFrame rate mode                          : Variable\nFrame rate                               : 29.970 fps\nMinimum frame rate                       : 29.097 fps\nMaximum frame rate                       : 29.970 fps\nColor space                              : YUV\nChroma subsampling                       : 4:2:0\nBit depth                                : 8 bits\nScan type                                : Progressive\nBits/(Pixel*Frame)                       : 0.127\nStream size                              : 2.81 GiB (97%)\nWriting library                          : x264 core 115\nEncoding settings                        : cabac=1 / ref=3 / deblock=1:0:0 / analyse=0x1:0x111 / me=hex / subme=7 / psy=1 / psy_rd=1.00:0.00 / mixed_ref=1 / me_range=16 / chroma_me=1 / trellis=1 / 8x8dct=0 / cqm=0 / deadzone=21,11 / fast_pskip=1 / chroma_qp_offset=-2 / threads=16 / sliced_threads=0 / nr=0 / decimate=1 / interlaced=0 / bluray_compat=0 / constrained_intra=0 / bframes=3 / b_pyramid=2 / b_adapt=1 / b_bias=0 / direct=1 / weightb=1 / open_gop=0 / weightp=2 / keyint=250 / keyint_min=25 / scenecut=40 / intra_refresh=0 / rc_lookahead=40 / rc=abr / mbtree=1 / bitrate=3500 / ratetol=1.0 / qcomp=0.60 / qpmin=10 / qpmax=51 / qpstep=4 / ip_ratio=1.41 / aq=1:1.00\n\nAudio\nID                                       : 2\nFormat                                   : AAC\nFormat/Info                              : Advanced Audio Codec\nFormat profile                           : LC\nCodec ID                                 : 40\nDuration                                 : 1h 54mn\nBit rate mode                            : Variable\nBit rate                                 : 110 Kbps\nChannel(s)                               : 2 channels\nChannel positions                        : Front: L R\nSampling rate                            : 44.1 KHz\nCompression mode                         : Lossy\nStream size                              : 89.5 MiB (3%)\n\nwanted- not 1 thing","torrent":{"xt":"urn:btih:b1051d2e3ce64d61a028a2705f763c182b097485","amp;dn":"No.Boys.No.Toys.2.XXX.WEBRip.720P.x264-TBP","amp;tr":["udp%3A%2F%2Ftracker.openbittorrent.com%3A80","udp%3A%2F%2Fopen.demonii.com%3A1337","udp%3A%2F%2Ftracker.coppersurfer.tk%3A6969","udp%3A%2F%2Fexodus.desync.com%3A6969"],"infoHash":"b1051d2e3ce64d61a028a2705f763c182b097485","infoHashBuffer":{"type":"Buffer","data":[177,5,29,46,60,230,77,97,160,40,162,112,95,118,60,24,43,9,116,133]},"announce":[],"urlList":[]}}